<svg width="44" height="44" viewBox="0 0 502 502" fill="none" xmlns="http://www.w3.org/2000/svg">
<circle cx="250.66" cy="250.659" r="247" fill="#1F1C3A" stroke="#111114" stroke-width="7.31852"/>
<g filter="url(#filter0_i_4178_9)">
<circle cx="250.658" cy="250.659" r="237.852" fill="#212129"/>
<circle cx="250.658" cy="250.659" r="237.852" fill="url(#paint0_radial_4178_9)"/>
<circle cx="250.658" cy="250.659" r="237.852" fill="url(#paint1_radial_4178_9)"/>
<circle cx="250.658" cy="250.659" r="237.852" fill="url(#paint2_radial_4178_9)"/>
<circle cx="250.658" cy="250.659" r="237.852" fill="url(#paint3_radial_4178_9)"/>
<circle cx="250.658" cy="250.659" r="237.852" fill="url(#paint4_radial_4178_9)"/>
<circle cx="250.658" cy="250.659" r="237.852" fill="url(#paint5_radial_4178_9)"/>
<circle cx="250.658" cy="250.659" r="237.852" fill="url(#paint6_radial_4178_9)"/>
</g>
<g style="mix-blend-mode:overlay">
<path d="M210.423 142.286C216.831 124.393 231.531 110 250.754 110C270.731 110 284.701 123.615 291.096 142.286L364.985 353.934C367.246 360.158 368 365.616 368 368.327C368 383.497 355.939 394 341.993 394C326.15 394 318.235 385.442 314.465 373.785L303.146 337.208H198.338L187.03 373.396C183.261 385.455 175.346 394 159.892 394C144.815 394 132 382.33 132 366.771C132 360.547 133.885 355.879 134.638 353.934L210.423 142.286ZM214.557 283.527H286.184L251.131 170.695H250.377L214.557 283.527Z" fill="white"/>
</g>
<defs>
<filter id="filter0_i_4178_9" x="12.8066" y="12.8076" width="475.703" height="475.704" filterUnits="userSpaceOnUse" color-interpolation-filters="sRGB">
<feFlood flood-opacity="0" result="BackgroundImageFix"/>
<feBlend mode="normal" in="SourceGraphic" in2="BackgroundImageFix" result="shape"/>
<feColorMatrix in="SourceAlpha" type="matrix" values="0 0 0 0 0 0 0 0 0 0 0 0 0 0 0 0 0 0 127 0" result="hardAlpha"/>
<feOffset dx="0.731852" dy="3.65926"/>
<feComposite in2="hardAlpha" operator="arithmetic" k2="-1" k3="1"/>
<feColorMatrix type="matrix" values="0 0 0 0 1 0 0 0 0 1 0 0 0 0 1 0 0 0 0.2 0"/>
<feBlend mode="normal" in2="shape" result="effect1_innerShadow_4178_9"/>
</filter>
<radialGradient id="paint0_radial_4178_9" cx="0" cy="0" r="1" gradientUnits="userSpaceOnUse" gradientTransform="translate(250.659 236.022) rotate(108.381) scale(307.515 343.904)">
<stop offset="0.625986" stop-color="#0D93F6" stop-opacity="0"/>
<stop offset="0.82" stop-color="#0D93F6" stop-opacity="0.278102"/>
<stop offset="1" stop-color="#0D93F6"/>
</radialGradient>
<radialGradient id="paint1_radial_4178_9" cx="0" cy="0" r="1" gradientUnits="userSpaceOnUse" gradientTransform="translate(293.655 12.8076) rotate(95.1646) scale(477.643 328.268)">
<stop stop-color="#7B3EFF"/>
<stop offset="0.826416" stop-color="#7B3EFF" stop-opacity="0"/>
</radialGradient>
<radialGradient id="paint2_radial_4178_9" cx="0" cy="0" r="1" gradientUnits="userSpaceOnUse" gradientTransform="translate(308.292 94.2261) rotate(106.509) scale(395.972 219.804)">
<stop stop-color="#F44B74"/>
<stop offset="0.352462" stop-color="#F44B74" stop-opacity="0.253412"/>
<stop offset="0.468972" stop-color="#F44B74" stop-opacity="0.1"/>
<stop offset="0.659588" stop-color="#F44B74" stop-opacity="0"/>
</radialGradient>
<radialGradient id="paint3_radial_4178_9" cx="0" cy="0" r="1" gradientUnits="userSpaceOnUse" gradientTransform="translate(163.751 33.8484) rotate(85.5673) scale(473.461 240.652)">
<stop stop-color="#0D93F6"/>
<stop offset="0.269935" stop-color="#0D93F6" stop-opacity="0.285529"/>
<stop offset="0.445762" stop-color="#0D93F6" stop-opacity="0"/>
</radialGradient>
<radialGradient id="paint4_radial_4178_9" cx="0" cy="0" r="1" gradientUnits="userSpaceOnUse" gradientTransform="translate(217.725 488.511) rotate(-136.419) scale(496.303 331.271)">
<stop stop-color="#0D93F6"/>
<stop offset="0.295755" stop-color="#0D93F6" stop-opacity="0.285529"/>
<stop offset="0.496583" stop-color="#0D93F6" stop-opacity="0"/>
</radialGradient>
<radialGradient id="paint5_radial_4178_9" cx="0" cy="0" r="1" gradientUnits="userSpaceOnUse" gradientTransform="translate(114.351 250.659) rotate(68.9354) scale(277.432 234.177)">
<stop stop-opacity="0.6"/>
<stop offset="1" stop-opacity="0"/>
</radialGradient>
<radialGradient id="paint6_radial_4178_9" cx="0" cy="0" r="1" gradientUnits="userSpaceOnUse" gradientTransform="translate(229.618 289.997) rotate(-70.8476) scale(323.451 343.383)">
<stop offset="0.63" stop-color="#0DF6F6" stop-opacity="0"/>
<stop offset="0.815" stop-color="#0DF6F6" stop-opacity="0.202703"/>
<stop offset="1" stop-color="#0DF6F6"/>
</radialGradient>
</defs>
</svg>
