<svg width="43" height="42" viewBox="0 0 43 42" fill="none" xmlns="http://www.w3.org/2000/svg">
<g clip-path="url(#clip0_2014_2897)">
<g clip-path="url(#clip1_2014_2897)">
<path d="M21.5424 0.164062C10.0423 0.164062 0.708984 9.4974 0.708984 20.9974C0.708984 32.4974 10.0423 41.8307 21.5424 41.8307C33.0424 41.8307 42.3757 32.4974 42.3757 20.9974C42.3757 9.4974 33.0424 0.164062 21.5424 0.164062ZM31.209 14.3307C30.8965 17.6224 29.5424 25.6224 28.8549 29.3099C28.5632 30.8724 27.9799 31.3932 27.4382 31.4557C26.2299 31.5599 25.3132 30.6641 24.1465 29.8932C22.3132 28.6849 21.2715 27.9349 19.5007 26.7682C17.4382 25.4141 18.7715 24.6641 19.959 23.4557C20.2715 23.1432 25.6049 18.2891 25.709 17.8516C25.7235 17.7853 25.7216 17.7165 25.7034 17.6512C25.6853 17.5858 25.6514 17.5259 25.6049 17.4766C25.4799 17.3724 25.3132 17.4141 25.1674 17.4349C24.9799 17.4766 22.0632 19.4141 16.3757 23.2474C15.5424 23.8099 14.7923 24.1016 14.1257 24.0807C13.3757 24.0599 11.959 23.6641 10.8965 23.3099C9.58399 22.8932 8.56315 22.6641 8.64649 21.9349C8.68815 21.5599 9.20899 21.1849 10.1881 20.7891C16.2715 18.1432 20.3132 16.3932 22.334 15.5599C28.1257 13.1432 29.3132 12.7266 30.1049 12.7266C30.2715 12.7266 30.6674 12.7682 30.9174 12.9766C31.1257 13.1432 31.1882 13.3724 31.209 13.5391C31.1882 13.6641 31.2299 14.0391 31.209 14.3307Z" fill="white"/>
</g>
</g>
<defs>
<clipPath id="clip0_2014_2897">
<rect width="42" height="42" fill="white" transform="translate(0.542969)"/>
</clipPath>
<clipPath id="clip1_2014_2897">
<rect width="42" height="42" fill="white" transform="translate(0.542969)"/>
</clipPath>
</defs>
</svg>
