<svg width="43" height="42" viewBox="0 0 43 42" fill="none" xmlns="http://www.w3.org/2000/svg">
<g clip-path="url(#clip0_2014_2894)">
<path fill-rule="evenodd" clip-rule="evenodd" d="M0.542969 21C0.542969 9.408 9.95097 0 21.543 0C33.135 0 42.543 9.408 42.543 21C42.543 32.592 33.135 42 21.543 42C9.95097 42 0.542969 32.592 0.542969 21ZM31.9662 14.8615C32.7865 14.8615 32.9719 15.2649 32.7865 15.8197V15.8178C32.4977 17.09 30.0959 20.4612 29.3517 21.5058C29.2102 21.7044 29.1286 21.8189 29.1329 21.8189C28.8417 22.2725 28.736 22.4741 29.1329 22.9783C29.2766 23.1651 29.5818 23.4502 29.9304 23.7759C30.2878 24.1099 30.6909 24.4865 31.0126 24.8436C32.1777 26.1038 33.0782 27.1624 33.3162 27.8934C33.5282 28.6243 33.1574 29.0026 32.3631 29.0026H29.636C28.9131 29.0026 28.5405 28.6074 27.7466 27.7652C27.4062 27.4041 26.9884 26.9609 26.4323 26.4315C24.8172 24.944 24.1021 24.7428 23.7053 24.7428C23.149 24.7428 22.9902 24.8687 22.9902 25.6247V27.9691C22.9902 28.5992 22.7787 28.9775 21.0308 28.9775C18.1448 28.9775 14.9412 27.312 12.6907 24.213C9.30157 19.6757 8.375 16.2477 8.375 15.5669C8.375 15.1886 8.50729 14.8359 9.30157 14.8359H12.0552C12.7438 14.8359 13.0105 15.1134 13.273 15.8473C14.623 19.5527 16.8735 22.8047 17.8 22.8047C18.1469 22.8047 18.3032 22.6527 18.3032 21.8209V17.987C18.2379 16.898 17.8397 16.4234 17.5444 16.0715C17.3613 15.8532 17.2178 15.6822 17.2178 15.441C17.2178 15.1385 17.4823 14.8359 17.9063 14.8359H22.1959C22.7787 14.8359 22.9902 15.1385 22.9902 15.7937V20.962C22.9902 21.5164 23.2287 21.7181 23.4141 21.7181C23.7584 21.7181 24.0495 21.5164 24.6849 20.9114C26.6443 18.8193 28.0475 15.5925 28.0475 15.5925C28.2329 15.2147 28.5506 14.8615 29.2386 14.8615H31.9662Z" fill="white"/>
</g>
<defs>
<clipPath id="clip0_2014_2894">
<rect width="42" height="42" fill="white" transform="translate(0.542969)"/>
</clipPath>
</defs>
</svg>
